<?xml version="1.0" encoding="UTF-8"?>
<svg width="215px" height="32px" viewBox="0 0 215 32" version="1.1" xmlns="http://www.w3.org/2000/svg" xmlns:xlink="http://www.w3.org/1999/xlink">
    <title>logo/32/text/color/gosend</title>
    <g id="logo/32/text/color/gosend" stroke="none" stroke-width="1" fill="none" fill-rule="evenodd">
        <g id="Group" transform="translate(-0.000000, 2.056245)" fill-rule="nonzero">
            <circle id="Oval" fill="#00AA13" cx="12.8" cy="13.9437547" r="12.8"></circle>
            <path d="M19.6428907,10.9176213 C19.6022596,10.4136239 19.3391667,9.95394144 18.925184,9.66362667 C18.5223111,9.37443911 18.108384,9.09393067 17.6834027,8.82210133 C15.9981333,9.59352533 13.84432,10.6968853 12.1068693,11.608512 C11.508796,11.9196205 11.1263797,12.5304985 11.1078293,13.2043947 C11.087168,14.079232 11.073632,14.9542293 11.0726293,15.829568 L9.75805867,13.6609493 L8.44315733,14.519552 C8.45060267,13.6891164 8.47610667,12.8588587 8.51966933,12.0287787 C8.5539313,11.3712736 8.93199681,10.7804305 9.51464533,10.473824 C11.3424427,9.51216 13.5910507,8.32626133 15.3355733,7.47329067 C14.74752,7.168032 14.1530347,6.87537067 13.54704,6.61188267 C13.1224709,6.43256139 12.6435173,6.43208452 12.218592,6.61056 C10.3056516,7.39218907 8.4791988,8.37066965 6.76871467,9.530208 C6.35531533,9.80696488 6.08771701,10.2544339 6.03949867,10.7495787 C5.85811322,12.6499545 5.81940927,14.5612523 5.923712,16.4674133 C5.95070995,16.9325321 6.17078271,17.3652261 6.53077333,17.6609813 C8.17547397,19.0731008 9.98806586,20.2769729 11.9274987,21.2453333 C12.4082489,21.4711087 12.9657803,21.4650044 13.441472,21.2287573 C15.3658908,20.2576026 17.2008117,19.1184424 18.924864,17.824544 C19.3185585,17.5394948 19.56859,17.0971196 19.6097387,16.6128107 C19.7626384,14.7178904 19.7737199,12.8141932 19.6428907,10.9176213 Z" id="Path" fill="#FFFFFF"></path>
            <path d="M35.679168,20.3156267 C36.7658264,21.8651966 38.5722698,22.7479464 40.4625067,22.653088 C42.69376,22.653088 44.333344,21.229088 44.333344,19.2937067 L44.333344,18.2729067 L44.2791787,18.2729067 C43.057238,19.4669422 41.3889737,20.0912206 39.6833493,19.992704 C36.9895853,20.0700321 34.4643226,18.6856148 33.0807888,16.3730019 C31.6972551,14.0603889 31.6714622,11.1806497 33.0133506,8.84362602 C34.355239,6.50660234 36.8552991,5.07717481 39.550016,5.10624 C41.2873299,4.99515443 42.9949327,5.59657967 44.2791787,6.771872 L44.333344,6.771872 L44.333344,5.375008 L48.1479253,5.375008 L48.1479253,19.240608 C48.1479253,23.270816 44.9500587,26.0656107 40.4625067,26.0656107 C37.5232719,26.2249862 34.6856818,24.9661571 32.831264,22.680192 L35.679168,20.3156267 Z M44.1708373,11.6895893 C44.1708373,10.077088 42.3437547,8.59896533 40.3020373,8.59896533 C37.7228373,8.59896533 36.0020373,10.158336 36.0020373,12.49584 C35.9256447,13.6036918 36.3422501,14.6887577 37.1404272,15.4608229 C37.9386044,16.2328881 39.0369221,16.6131856 40.1416213,16.5 C42.3707947,16.5 44.1708373,15.1020907 44.1708373,13.3552107 L44.1708373,11.6895893 Z M58.1458347,4.97188267 C62.7937493,4.97188267 66.181248,8.277088 66.181248,12.49584 C66.181248,16.714592 62.7937493,20.0197973 58.1458347,20.0197973 C55.3395449,20.2046721 52.6635891,18.8124145 51.2043378,16.408246 C49.7450865,14.0040775 49.7450865,10.9876025 51.2043378,8.58343403 C52.6635891,6.17926551 55.3395449,4.78700789 58.1458347,4.97188267 Z M58.1458347,8.46458667 C55.9233703,8.47975477 54.1325419,10.290992 54.142475,12.5134856 C54.1525747,14.7359792 55.959656,16.5310012 58.1821669,16.5261562 C60.4046777,16.5212717 62.2038837,14.7183561 62.2041707,12.49584 C62.2543839,11.4072949 61.8420099,10.3482644 61.0688985,9.5803122 C60.295787,8.81236002 59.2340192,8.40708609 58.1458347,8.46458667 Z M70.9645867,14.1083413 C71.5291627,15.935424 72.979168,16.84896 75.262496,16.84896 C77.3333333,16.84896 78.5145813,16.3916693 78.5145813,15.6125013 C78.5145813,14.7802133 77.6541653,14.4031253 74.9937493,14 C69.781248,13.1947947 67.9270827,11.9312533 67.9270827,9.37813333 C67.9270827,6.7448 70.560416,4.97188267 74.4833387,4.97188267 C78.058336,4.97188267 81.3104213,6.79896533 82.062496,9.27083733 L78.4333333,10.3729173 C77.6937771,8.88108933 76.1148319,7.99567125 74.456256,8.14270933 C72.818752,8.14270933 71.7437227,8.626048 71.7437227,9.37813333 C71.7437227,10.1312533 72.4957973,10.4 75.639552,10.937504 C80.4499733,11.6895893 82.358304,13.0062507 82.358304,15.5854187 C82.358304,18.2458347 79.5082987,20.0197973 75.237472,20.0197973 C73.3693474,20.0803179 71.5229595,19.6046221 69.91664,18.64896 C68.5480286,17.8616534 67.572924,16.5358187 67.2291307,14.9947947 L70.9645867,14.1083413 Z M91.3874987,4.97188267 C93.4561291,4.86682582 95.4734769,5.63713628 96.9456175,7.09421233 C98.4177581,8.55128839 99.2087772,10.5606065 99.1250027,12.630208 L99.1250027,13.758336 L87.5708693,13.758336 C87.7042027,15.6125013 89.237536,16.7947947 91.602112,16.7947947 C93.3068265,16.7817954 94.9151337,16.002128 95.98128,14.6718827 L98.4541973,17.1448 C96.7198214,19.0702317 94.2185014,20.1238999 91.6291947,20.0197973 C86.656288,20.0197973 83.6479467,17.037504 83.6479467,12.5229227 C83.6014707,10.4732298 84.4083872,8.49630658 85.8758731,7.06456424 C87.3433589,5.63282191 89.3395746,4.87488875 91.3874987,4.97188267 Z M95.2562987,10.9635413 C95.0687893,9.27083733 93.589632,8.19584 91.4667093,8.19584 C89.3167147,8.19584 87.8396267,9.27083733 87.6250453,10.9635413 L95.2562987,10.9635413 Z M101.249952,5.375008 L105.091669,5.375008 L105.091669,6.718752 L105.145835,6.718752 C106.472727,5.55250192 108.190208,4.92881132 109.956256,4.97188267 C113.987499,4.97188267 116.781248,7.63229867 116.781248,11.5010453 L116.781248,19.616672 L112.804171,19.616672 L112.804171,12.0114667 C112.804171,9.83546667 111.379168,8.518752 109.095829,8.518752 C108.108531,8.42190265 107.126128,8.74559289 106.389775,9.41036526 C105.653422,10.0751376 105.2313,11.0194384 105.227029,12.0114667 L105.227029,19.616672 L101.249952,19.616672 L101.249952,5.375008 Z M126.347915,4.97188267 C128.025094,4.89402754 129.671774,5.4394534 130.970848,6.50312533 L131.022933,6.50312533 L131.022933,-3.90798505e-14 L135.000011,-3.90798505e-14 L135.000011,19.616672 L131.318763,19.616672 L131.318763,18.2197973 L131.26464,18.2197973 C129.991911,19.478069 128.242444,20.1329825 126.456309,20.0197973 C124.412938,20.1266069 122.417882,19.3747503 120.953236,17.9459095 C119.488589,16.5170688 118.687595,14.5412287 118.743808,12.49584 C118.712893,10.4770451 119.506768,8.53298437 120.941983,7.11289722 C122.377197,5.69281006 124.329561,4.91957832 126.347915,4.97188267 L126.347915,4.97188267 Z M131.022923,11.5552107 C131.022923,9.86250667 129.141664,8.46458667 126.966667,8.46458667 C125.854798,8.381802 124.759666,8.77237288 123.951113,9.54006247 C123.14256,10.3077521 122.69577,11.3811752 122.720832,12.49584 C122.720832,14.94064 124.385419,16.5 126.966667,16.5 C129.222923,16.5 131.022923,15.1020907 131.022923,13.3552107 L131.022923,11.5552107 Z" id="Shape" fill="#000000"></path>
        </g>
    </g>
</svg>